<svg width="330" height="110" viewBox="0 0 330 110" fill="none" xmlns="http://www.w3.org/2000/svg">
<circle cx="70" cy="55" r="47.5" fill="#FF0000" stroke="black" stroke-width="5"/>
<mask id="path-2-inside-1_1_7" fill="white">
<path d="M120 55C120 41.7392 114.732 29.0215 105.355 19.6447C95.9785 10.2678 83.2608 5 70 5C56.7392 5 44.0215 10.2678 34.6447 19.6447C25.2678 29.0215 20 41.7392 20 55L70 55H120Z"/>
</mask>
<path d="M120 55C120 41.7392 114.732 29.0215 105.355 19.6447C95.9785 10.2678 83.2608 5 70 5C56.7392 5 44.0215 10.2678 34.6447 19.6447C25.2678 29.0215 20 41.7392 20 55L70 55H120Z" fill="#FF0000" stroke="black" stroke-width="10" mask="url(#path-2-inside-1_1_7)"/>
<mask id="path-3-inside-2_1_7" fill="white">
<path d="M20 55C20 68.2608 25.2678 80.9785 34.6447 90.3553C44.0215 99.7322 56.7392 105 70 105C83.2608 105 95.9785 99.7322 105.355 90.3553C114.732 80.9785 120 68.2608 120 55L70 55L20 55Z"/>
</mask>
<path d="M20 55C20 68.2608 25.2678 80.9785 34.6447 90.3553C44.0215 99.7322 56.7392 105 70 105C83.2608 105 95.9785 99.7322 105.355 90.3553C114.732 80.9785 120 68.2608 120 55L70 55L20 55Z" fill="white" stroke="black" stroke-width="10" mask="url(#path-3-inside-2_1_7)"/>
<circle cx="70" cy="55" r="13.5" fill="white" stroke="black" stroke-width="5"/>
<path d="M123.998 31.2061C125.967 30.555 127.815 29.9528 129.54 29.3994C131.282 28.846 133.113 28.3252 135.033 27.8369C136.954 27.3324 138.793 26.9336 140.551 26.6406C141.902 26.4128 143.285 26.2988 144.701 26.2988C147.061 26.2988 148.607 26.3639 149.34 26.4941C150.447 26.7057 151.488 27.0475 152.465 27.5195C153.458 27.9915 154.337 28.6263 155.102 29.4238C155.883 30.2051 156.518 31.1328 157.006 32.207C157.201 32.6465 157.299 33.1104 157.299 33.5986C157.299 35.4215 156.298 37.6676 154.296 40.3369C152.31 43.0062 150.308 45.3337 148.29 47.3193C146.288 49.305 144.791 50.7292 143.798 51.5918L148.192 66.9971L141.796 71.6113L130.59 39.6045C130.557 39.6045 130.403 39.7591 130.126 40.0684C129.849 40.3776 129.483 40.7845 129.027 41.2891C128.588 41.7773 128.311 42.0785 128.197 42.1924C128.148 42.1924 127.986 41.8424 127.709 41.1426C127.449 40.4427 127.09 39.4743 126.635 38.2373C126.195 36.984 125.699 35.6006 125.146 34.0869C124.576 32.557 124.193 31.5967 123.998 31.2061ZM139.794 37.9932L141.796 45.1953C142.805 44.1699 144.058 42.7702 145.556 40.9961C147.053 39.222 147.802 37.9362 147.802 37.1387C147.802 36.8294 147.672 36.6504 147.411 36.6016C146.679 36.4388 145.954 36.3574 145.238 36.3574C143.09 36.3574 141.275 36.9027 139.794 37.9932ZM175.634 43.5596C176.789 44.1781 177.725 45.0163 178.441 46.0742C179.174 47.1159 179.703 48.2959 180.028 49.6143C180.37 50.9163 180.541 52.2754 180.541 53.6914C180.541 54.8633 180.443 55.9945 180.248 57.085C180.069 58.1755 179.817 59.1764 179.491 60.0879C179.166 60.9993 178.783 61.7725 178.344 62.4072C177.318 63.9372 176.22 65.2555 175.048 66.3623C173.876 67.4691 172.68 68.3643 171.459 69.0479C170.238 69.7152 169.026 70.2035 167.821 70.5127C166.633 70.8382 165.453 71.001 164.281 71.001C162.898 71.001 161.579 70.7812 160.326 70.3418C159.089 69.9186 158.031 69.3571 157.152 68.6572C155.704 67.4528 154.573 65.8333 153.759 63.7988C152.945 61.748 152.538 59.5833 152.538 57.3047C152.538 53.3822 153.669 50.2165 155.932 47.8076C157.868 45.7406 159.87 44.1862 161.938 43.1445C164.005 42.0866 166.12 41.5576 168.285 41.5576C169.555 41.5576 170.775 41.7204 171.947 42.0459C173.119 42.3551 174.348 42.8597 175.634 43.5596ZM174.193 47.6611C173.917 48.8981 173.314 49.9886 172.387 50.9326C171.475 51.8766 170.58 52.3486 169.701 52.3486C169.262 52.3486 168.871 52.2347 168.529 52.0068C168.041 51.6162 167.797 50.9326 167.797 49.9561C167.797 49.2074 168.041 48.4668 168.529 47.7344C169.034 47.002 169.823 46.4242 170.897 46.001C169.823 46.001 168.782 46.2044 167.772 46.6113C166.78 47.0182 165.925 47.5472 165.209 48.1982C164.493 48.833 163.915 49.5573 163.476 50.3711C163.052 51.1686 162.841 51.9743 162.841 52.7881C162.841 54.3018 163.541 55.5062 164.94 56.4014C166.243 57.2314 167.479 57.6465 168.651 57.6465C169.807 57.6465 170.832 57.264 171.728 56.499C172.623 55.7178 173.306 54.7249 173.778 53.5205C174.25 52.2998 174.486 51.0954 174.486 49.9072C174.486 49.0934 174.389 48.3447 174.193 47.6611ZM176.488 29.2041L188.891 24.0039L190.697 52.2021L200.902 46.6113L211.498 48.1982L197.68 58.7939L210.692 68.6084L211.278 78.3984L192.089 64.6045L192.699 76.5918L181.078 76.8115L178.881 34.4043L175.292 35.21L176.488 29.2041ZM228.49 56.499L234.374 63.6035C233.902 64.9707 232.779 66.224 231.005 67.3633C229.247 68.5026 227.147 69.3978 224.706 70.0488C222.281 70.7161 219.856 71.0498 217.431 71.0498C215.282 71.0498 213.362 70.765 211.669 70.1953C209.993 69.6257 208.699 68.763 207.787 67.6074C206.208 65.6217 205.419 63.0827 205.419 59.9902C205.419 57.5488 205.858 55.1481 206.737 52.7881C207.632 50.4118 208.576 48.7516 209.569 47.8076C210.757 46.6846 212.043 45.7487 213.427 45C214.826 44.2513 216.275 43.6898 217.772 43.3154C219.27 42.9411 220.808 42.7539 222.387 42.7539C224.454 42.7539 226.415 43.0876 228.271 43.7549C230.142 44.4059 231.778 45.3581 233.178 46.6113L219.774 62.6025C220.963 62.6025 222.086 62.3584 223.144 61.8701C224.218 61.3656 225.202 60.6576 226.098 59.7461C226.993 58.8184 227.79 57.736 228.49 56.499ZM221.728 50.8105C220.93 50.4036 220.116 50.2002 219.286 50.2002C218.407 50.2002 217.553 50.3792 216.723 50.7373C215.909 51.0954 215.331 51.5186 214.989 52.0068C213.98 53.3089 213.476 54.7412 213.476 56.3037C213.476 56.8734 213.533 57.4186 213.646 57.9395C213.76 58.4603 213.956 59.1764 214.232 60.0879L221.728 50.8105ZM209.179 33.208L222.191 26.0059L227.782 34.5996L211.986 37.6025L209.179 33.208ZM234.569 33.5986L246.581 32.793L249.779 37.9932L252.587 30.791L260.375 30.5957L269.579 73.3936L255.37 72.002L252.782 57.4023L249.975 62.7979L246.19 56.0107L244.97 68.3887L231.176 69.3896L234.569 33.5986ZM288.134 43.5596C289.289 44.1781 290.225 45.0163 290.941 46.0742C291.674 47.1159 292.203 48.2959 292.528 49.6143C292.87 50.9163 293.041 52.2754 293.041 53.6914C293.041 54.8633 292.943 55.9945 292.748 57.085C292.569 58.1755 292.317 59.1764 291.991 60.0879C291.666 60.9993 291.283 61.7725 290.844 62.4072C289.818 63.9372 288.72 65.2555 287.548 66.3623C286.376 67.4691 285.18 68.3643 283.959 69.0479C282.738 69.7152 281.526 70.2035 280.321 70.5127C279.133 70.8382 277.953 71.001 276.781 71.001C275.398 71.001 274.079 70.7812 272.826 70.3418C271.589 69.9186 270.531 69.3571 269.652 68.6572C268.204 67.4528 267.073 65.8333 266.259 63.7988C265.445 61.748 265.038 59.5833 265.038 57.3047C265.038 53.3822 266.169 50.2165 268.432 47.8076C270.368 45.7406 272.37 44.1862 274.438 43.1445C276.505 42.0866 278.62 41.5576 280.785 41.5576C282.055 41.5576 283.275 41.7204 284.447 42.0459C285.619 42.3551 286.848 42.8597 288.134 43.5596ZM286.693 47.6611C286.417 48.8981 285.814 49.9886 284.887 50.9326C283.975 51.8766 283.08 52.3486 282.201 52.3486C281.762 52.3486 281.371 52.2347 281.029 52.0068C280.541 51.6162 280.297 50.9326 280.297 49.9561C280.297 49.2074 280.541 48.4668 281.029 47.7344C281.534 47.002 282.323 46.4242 283.397 46.001C282.323 46.001 281.282 46.2044 280.272 46.6113C279.28 47.0182 278.425 47.5472 277.709 48.1982C276.993 48.833 276.415 49.5573 275.976 50.3711C275.552 51.1686 275.341 51.9743 275.341 52.7881C275.341 54.3018 276.041 55.5062 277.44 56.4014C278.743 57.2314 279.979 57.6465 281.151 57.6465C282.307 57.6465 283.332 57.264 284.228 56.499C285.123 55.7178 285.806 54.7249 286.278 53.5205C286.75 52.2998 286.986 51.0954 286.986 49.9072C286.986 49.0934 286.889 48.3447 286.693 47.6611ZM301.586 41.8018C303.393 41.1995 304.947 40.7438 306.249 40.4346C307.551 40.109 308.796 39.9463 309.984 39.9463C311.579 39.9463 312.979 40.2962 314.184 40.9961C315.632 41.8262 317.195 43.2422 318.871 45.2441C320.548 47.2461 321.589 49.1016 321.996 50.8105C322.859 54.2773 323.29 57.3047 323.29 59.8926C323.29 61.2598 323.201 62.7002 323.021 64.2139C322.842 65.7113 322.566 67.64 322.191 70L311.986 70.6104C312.019 69.7965 312.035 68.6247 312.035 67.0947C312.035 60.7145 311.156 55.2865 309.398 50.8105C308.715 49.1341 308.048 48.2959 307.396 48.2959C306.55 48.2959 305.614 49.4678 304.589 51.8115C304.345 52.3812 304.141 53.0322 303.979 53.7646C303.832 54.4971 303.718 55.319 303.637 56.2305C303.572 57.1419 303.539 58.2161 303.539 59.4531C303.539 61.9596 303.686 65.1416 303.979 68.999L291.991 70.3906C291.796 68.9583 291.617 67.5342 291.454 66.1182C291.291 64.7021 291.161 63.3919 291.063 62.1875C290.982 60.9668 290.941 59.6566 290.941 58.2568C290.941 57.6546 290.974 56.7839 291.039 55.6445L290.6 41.4111L300.194 40.1904L301.586 41.8018Z" fill="white"/>
</svg>
